<?xml version="1.0" encoding="UTF-8"?>
<svg width="50px" height="50px" viewBox="0 0 50 50" version="1.1" xmlns="http://www.w3.org/2000/svg" xmlns:xlink="http://www.w3.org/1999/xlink">
    <!-- Generator: Sketch 53.2 (72643) - https://sketchapp.com -->
    <title>Artboard</title>
    <desc>Created with Sketch.</desc>
    <g id="Artboard" stroke="none" stroke-width="1" fill="none" fill-rule="evenodd">
        <g id="blog" fill="#222222">
            <path d="M15.625,37.5 C13.8991211,37.5 12.5,36.1008789 12.5,34.375 C12.5,32.6491211 13.8991211,31.25 15.625,31.25 C17.3508789,31.25 18.75,32.6491211 18.75,34.375 C18.75,36.1008789 17.3508789,37.5 15.625,37.5 Z M24.21875,37.5 C24.21875,31.0382812 18.9617188,25.78125 12.5,25.78125 L12.5,21.09375 C21.5464844,21.09375 28.90625,28.4535156 28.90625,37.5 L24.21875,37.5 Z M33.59375,37.5 C33.59375,31.8657227 31.3995117,26.5685547 27.4154297,22.5844727 C23.4314453,18.6003906 18.134375,16.40625 12.5,16.40625 L12.5,11.71875 C19.3864258,11.71875 25.8605469,14.4004883 30.7302734,19.2699219 C35.5995117,24.1393555 38.28125,30.6134766 38.28125,37.5 L33.59375,37.5 Z" id="Shape" fill-rule="nonzero"></path>
            <path d="M0,0 L50,0 L50,50 L0,50 L0,0 Z M25,50 C38.8071187,50 50,38.8071187 50,25 C50,11.1928813 38.8071187,0 25,0 C11.1928813,0 0,11.1928813 0,25 C0,38.8071187 11.1928813,50 25,50 Z" id="Combined-Shape"></path>
        </g>
    </g>
</svg>