<?xml version="1.0" encoding="UTF-8"?>
<svg width="50px" height="50px" viewBox="0 0 50 50" version="1.1" xmlns="http://www.w3.org/2000/svg" xmlns:xlink="http://www.w3.org/1999/xlink">
    <!-- Generator: Sketch 53.2 (72643) - https://sketchapp.com -->
    <title>Artboard</title>
    <desc>Created with Sketch.</desc>
    <g id="Artboard" stroke="none" stroke-width="1" fill="none" fill-rule="evenodd">
        <g id="email" fill="#222222">
            <path d="M24.9998333,8.781 L39.7936667,18.006 L10.206,18.006 L24.9998333,8.781 Z M39.978,32.7371667 L39.9765,32.7371667 C39.9765,34.2168333 38.7773333,35.4158333 37.2978333,35.4158333 L12.7018333,35.4158333 C11.2221667,35.4158333 10.0231667,34.2166667 10.0231667,32.7371667 L10.0231667,18.593 C10.0231667,18.4365 10.0391667,18.2843333 10.0651667,18.1348333 L24.1998333,26.9486667 C24.2171667,26.9595 24.2356667,26.9668333 24.2535,26.9768333 C24.2721667,26.9871667 24.2911667,26.9971667 24.3101667,27.0066667 C24.41,27.0581667 24.5128333,27.0996667 24.618,27.1268333 C24.6288333,27.1298333 24.6396667,27.1311667 24.6505,27.1336667 C24.7658333,27.1608333 24.8826667,27.1778333 24.9993333,27.1778333 L25.0001667,27.1778333 C25.001,27.1778333 25.0018333,27.1778333 25.0018333,27.1778333 C25.1185,27.1778333 25.2353333,27.1613333 25.3506667,27.1336667 C25.3615,27.131 25.3723333,27.1298333 25.3831667,27.1268333 C25.4881667,27.0996667 25.5906667,27.0581667 25.691,27.0066667 C25.71,26.9971667 25.729,26.9871667 25.7476667,26.9768333 C25.7653333,26.9668333 25.784,26.9595 25.8013333,26.9486667 L39.936,18.1348333 C39.962,18.2843333 39.978,18.4361667 39.978,18.593 L39.978,32.7371667 Z" id="Shape" fill-rule="nonzero"></path>
            <path d="M0,0 L50,0 L50,50 L0,50 L0,0 Z M25,50 C38.8071187,50 50,38.8071187 50,25 C50,11.1928813 38.8071187,0 25,0 C11.1928813,0 0,11.1928813 0,25 C0,38.8071187 11.1928813,50 25,50 Z" id="Combined-Shape"></path>
        </g>
    </g>
</svg>