<?xml version="1.0" encoding="UTF-8"?>
<svg width="51px" height="51px" viewBox="0 0 51 51" version="1.1" xmlns="http://www.w3.org/2000/svg" xmlns:xlink="http://www.w3.org/1999/xlink">
    <!-- Generator: Sketch 53.2 (72643) - https://sketchapp.com -->
    <title>Logo</title>
    <desc>Created with Sketch.</desc>
    <g id="Logo" stroke="none" stroke-width="1" fill="none" fill-rule="evenodd">
        <g id="Cerise" transform="translate(15.000000, 13.000000)" stroke="#DE3163">
            <path d="M10.7315883,4.24116461 L11.0833325,4.12292755 C11.2160761,5.63714381 11.3567242,7.32291531 11.5052771,9.18024207 C11.65383,11.0375688 11.755559,12.3651485 11.8104641,13.1629811 L10.6178126,13.1517319 C10.7509545,12.5485414 10.8470526,11.4598455 10.9061069,9.88564413 C10.9651612,8.31144275 10.9069883,6.42994958 10.7315883,4.24116461 Z" id="Rectangle" stroke-width="0.5" fill="#DE3163" transform="translate(11.214138, 8.642954) rotate(-40.000000) translate(-11.214138, -8.642954) "></path>
            <path d="M12.5886752,20.3605448 C11.8366971,23.0141233 9.35575162,24.9615448 6.41114983,24.9615448 C2.87036955,24.9615448 0,22.1457256 0,18.6722366 C0,15.1987476 2.87036955,12.3829284 6.41114983,12.3829284 C8.5401212,12.3829284 10.4267205,13.4009253 11.5927283,14.9677882 C12.3620022,12.6792549 14.5592779,11.0274559 17.1498258,11.0274559 C20.3807878,11.0274559 23,13.5968909 23,16.7664496 C23,19.9360083 20.3807878,22.5054433 17.1498258,22.5054433 C15.3057451,22.5054433 13.6609472,21.6684273 12.5886752,20.3605448 Z M7.6769919,5.48292785 C5.09977415,5.17249918 2.87885652,3.99410965 1.01423899,1.94775926 C3.32811702,0.404713188 5.77366491,-0.211595512 8.35088266,0.0988331579 C10.9281004,0.409261828 13.149018,1.58765136 15.0136356,3.63400175 C12.6997575,5.17704782 10.2542097,5.79335652 7.6769919,5.48292785 Z" id="Combined-Shape" stroke-width="1.92"></path>
            <path d="M3.07859449,2.55796991 L3.34862736,2.61827608 C3.54831264,4.02365284 3.72410884,5.43492239 3.87601595,6.85208472 C4.02792307,8.26924706 4.22990765,10.3823462 4.48196969,13.1913822 L3.38001993,13.1280312 C3.508132,11.8434758 3.5446792,10.2143236 3.48966155,8.2405748 C3.43464389,6.26682596 3.29762154,4.37262433 3.07859449,2.55796991 Z" id="Rectangle" stroke-width="0.5" fill="#DE3163" transform="translate(3.780282, 7.874676) rotate(-15.000000) translate(-3.780282, -7.874676) "></path>
        </g>
    </g>
</svg>